<?xml version="1.0" encoding="utf-8" ?><svg xmlns="http://www.w3.org/2000/svg" xmlns:xlink="http://www.w3.org/1999/xlink" width="676" height="647" viewBox="0 0 676 647"><clipPath id="cl_3"><rect width="676" height="647"/></clipPath><g clip-path="url(#cl_3)"><path transform="translate(-155 -165)" d="M760.84 233.171C766.914 232.786 775.98 234.456 781.08 237.861C785.57 240.803 788.636 245.478 789.544 250.769C791.612 262.627 788.401 295.624 787.477 309.341C785.298 346.16 782.629 382.949 779.468 419.697C778.427 432.708 777.478 445.726 776.621 458.75C776.036 467.062 775.506 475.473 774.437 483.698C772.829 495.808 766.421 502.471 754.324 504.511C739.323 507.04 729.076 494.938 718.317 486.211C711.428 480.578 704.398 475.119 697.234 469.84C664.086 511.371 627.484 552.836 593.566 594.101C576.514 614.769 559.343 635.338 542.053 655.807C532.765 666.915 523.548 678.334 513.819 689.038C508.622 694.755 496.896 699.248 489.683 695.335C481.807 691.064 474.355 683.502 467.546 677.507C458.038 669.202 448.593 660.826 439.211 652.379C430.777 644.695 419.77 634.329 410.656 627.557C376.713 663.577 345.133 702.705 311.586 738.979C291.907 760.258 280.849 756.323 262.469 737.459C258.013 732.885 252.382 727.786 247.685 723.4C236.588 712.328 224.954 701.959 213.818 690.898C207.761 684.883 196.538 676.181 195.278 667.57C193.856 657.857 195.737 652.227 201.753 644.607C211.755 631.939 222.585 619.968 233.263 607.848L293.248 540.248C311.312 519.53 329.537 498.952 347.922 478.517C359.538 465.424 370.64 452.134 383.447 440.157C401.536 423.242 417.747 441.921 431.276 454.072C440.507 462.521 449.801 470.902 459.157 479.212C464.815 484.296 471.87 490.868 477.86 495.431L478.359 495.806C484.824 487.437 492.906 478.21 499.766 470.018L532.359 430.811L560.49 397.251C567.76 388.47 575.447 378.605 583.172 370.361C568.618 356.225 550.399 343.763 536.903 328.419C525.208 315.122 532.861 296.958 549.174 291.859C562.342 287.743 575.689 284.11 589.178 280.417L650.895 263.099L716.926 244.233C731.2 240.185 746.23 235.494 760.84 233.171Z"/><path fill="#FD4848" transform="translate(-155 -165)" d="M756.565 265.548L756.982 265.645C757.812 267.718 750.762 358.186 750.228 366.379L743.837 470.502C734.77 462.787 702.688 434.965 693.955 431.817C691.096 432.777 686.688 434.322 684.771 436.479C677.551 444.606 670.49 453.482 663.501 461.806L613.095 522.342L528.404 623.014C518.261 635.145 505.997 648.848 496.467 660.974C490.86 657.817 482.498 649.451 477.337 644.731L438.934 610.146C430.301 602.374 419.071 590.496 408.518 586.348C405.964 587.674 401.603 589.748 399.744 591.597C394.822 596.49 390.196 602.164 385.67 607.468L362.057 635.108L288.996 719.323C285.411 714.794 280.833 710.918 276.645 706.892L257.224 688.104C248.258 680.513 236.524 668.948 227.861 660.642C241.703 644.608 255.197 628.112 269.357 612.39C280.476 600.847 291.776 589.451 302.557 577.584C306.851 572.857 310.703 567.325 314.962 562.503C342.705 531.097 370.341 498.142 399.485 468.116C404.879 473.403 410.266 478.164 415.881 483.19C434.814 500.139 453.46 517.448 472.971 533.737C474.319 534.861 476.376 535.781 477.993 536.472C491.669 532.008 502.875 514.362 512.007 503.22C524.582 487.919 537.344 472.773 550.29 457.785C567.461 438.01 584.815 416.476 601.48 396.163C605.216 391.559 609.005 386.998 612.844 382.48C619.896 374.265 629.201 367.301 617.742 357.321C602.99 344.471 588.058 331.774 573.244 318.967C612.486 306.992 651.314 296.432 690.625 285.146L756.565 265.548Z"/></g></svg>